<?xml version="1.0" encoding="utf-8"?>
<!-- Generator: Adobe Illustrator 19.0.0, SVG Export Plug-In . SVG Version: 6.00 Build 0)  -->
<svg version="1.1" xmlns="http://www.w3.org/2000/svg" xmlns:xlink="http://www.w3.org/1999/xlink" x="0px" y="0px"
	 viewBox="0 0 841.9 566.9" style="enable-background:new 0 0 841.9 566.9;" xml:space="preserve">
<style type="text/css">
	.st0{display:none;}
	.st1{display:inline;fill:#FFFFFF;}
	.st2{display:inline;fill:#838585;}
	.st3{fill:url(#SVGID_1_);}
	.st4{fill:url(#SVGID_2_);}
	.st5{fill:#4DDFE9;}
	.st6{fill:url(#SVGID_3_);}
	.st7{fill:#4ABDE0;}
	.st8{opacity:0.47;fill:#173056;}
</style>
<g id="BG" class="st0">
	<rect y="0" class="st1" width="841.9" height="566.9"/>
</g>
<g id="graphics">
	<g class="st0">
		<path class="st2" d="M324.9,404v37.2h-12.8V404H324.9z"/>
		<path class="st2" d="M350.8,429.8l-9-8v19.3H329V404h29.3c2.6,0,4.7,0.2,6.5,0.6c1.8,0.4,3.3,1,4.4,1.9c1.2,0.9,2,2.1,2.5,3.7
			c0.5,1.5,0.8,3.4,0.8,5.8c0,4.8-0.9,8.3-2.8,10.6c-1.8,2.3-5,3.4-9.3,3.4H350.8z M341.8,420.2h15.3c0.9,0,1.7-0.3,2.4-0.8
			c0.7-0.5,1.1-1.2,1.1-2.2c-0.1-0.7-0.4-1.3-1.1-1.8c-0.7-0.5-1.4-0.8-2.2-0.8h-15.5V420.2z"/>
		<path class="st2" d="M376.6,435.2v-3.5h28.2c0.9,0,1.8-0.2,2.6-0.5c0.8-0.3,1.1-1,1.2-1.8c0-0.8-0.3-1.4-1.4-1.8
			c-1.1-0.4-18.9-0.7-22-0.8c-3.1-0.1-6.2-1.4-7.8-3.7c-0.6-0.8-1-1.8-1.3-3c-0.3-1.2-0.4-2.6-0.4-4.2c0-4,0.8-6.9,2.3-8.9
			c1.6-2,4.1-3,7.7-3c0,0,23.2,0,26.8,0c3.6,0,7,2.1,7.1,5.7l0.2,3.8h-28.1c-3.1,0-3.5,1.4-3.5,2.3c0,0.8,0.3,1.4,1,1.7
			c0.7,0.3,1.4,0.4,2.7,0.4c1.3,0.1,18.5,0.2,20.1,0.3c1.6,0,3.3,0.5,4.6,1.2c1.3,0.7,2.3,1.6,3,2.8l0.1,0.1c1,2,1.5,4.5,1.5,7.3
			c0,4.1-0.9,7.1-2.7,8.9c-1.8,1.9-4.8,2.8-8.9,2.8h-25.5C380,441.1,376.6,439.7,376.6,435.2z"/>
		<path class="st2" d="M436.9,404v24.5c0,0.4,0.2,0.8,0.7,1c0.4,0.3,1.1,0.4,2,0.4h15.7c1,0,1.7-0.1,2.2-0.4c0.4-0.3,0.7-0.6,0.7-1
			V404h12.6v26c0,1.7-0.2,3.1-0.6,4.4c-0.4,1.2-1.1,2.4-2.2,3.5c-0.5,0.5-1,0.9-1.4,1.3c-0.4,0.4-0.8,0.6-1.2,0.8
			c-0.8,0.5-1.8,0.8-3.1,1c-0.5,0.1-1.3,0.2-2.2,0.3c-0.9,0.1-1.9,0.1-2.9,0.2c-1.1,0-2.4,0-4.1,0c-1.7,0-3.5,0-5.5,0
			c-2.1,0-4,0-5.6,0c-1.6,0-2.9,0-4,0c-2.3-0.1-4-0.2-5.2-0.5h0.1c-0.6-0.1-1.2-0.2-1.7-0.4c-0.5-0.2-1-0.4-1.4-0.6
			c-0.4-0.2-0.9-0.5-1.3-0.9c-0.4-0.4-0.9-0.8-1.4-1.3c-1.1-1.1-1.9-2.2-2.2-3.4c-0.4-1.2-0.6-2.7-0.6-4.4v-26H436.9z"/>
		<path class="st2" d="M517.8,441.1v-23.2l-11.6,23.2h-8.5L486,418.3v22.9h-12.1V404h18.8l9.3,19.7c1.6-3.3,3.2-6.6,4.7-9.9
			c1.6-3.3,3.1-6.6,4.6-9.8h18.7v37.2H517.8z"/>
	</g>
	<g>
		<linearGradient id="SVGID_1_" gradientUnits="userSpaceOnUse" x1="228.3363" y1="166.2553" x2="574.2294" y2="166.2553">
			<stop  offset="0" style="stop-color:#81E9E2"/>
			<stop  offset="3.094059e-003" style="stop-color:#80E9E2"/>
			<stop  offset="0.2055" style="stop-color:#5BCED5"/>
			<stop  offset="0.407" style="stop-color:#3DB9CA"/>
			<stop  offset="0.6053" style="stop-color:#28AAC3"/>
			<stop  offset="0.7988" style="stop-color:#1BA1BE"/>
			<stop  offset="0.9818" style="stop-color:#179EBD"/>
		</linearGradient>
		<path class="st3" d="M268.8,271c16.3,3.4,39.6,0.1,44.7-1.4c60.9-22.8,109-55,147.3-83.1c31.7-23.3,59-43.4,88.6-47.7
			c4.3-0.6,8.6-1,12.6-1c4.4,0,8.4,0.4,12.2,1.1c-35.3-20.4-121.4-70.1-121.4-70.1c-9.9-5.7-21.2-8.7-32.6-8.7
			c-11.5,0-22.8,3-32.6,8.7l-126.2,72.9c-20.1,11.6-32.6,33.3-32.6,56.5C228.7,226.6,221.9,261,268.8,271z"/>
		<linearGradient id="SVGID_2_" gradientUnits="userSpaceOnUse" x1="195.4053" y1="274.9723" x2="651.7123" y2="274.9723">
			<stop  offset="0" style="stop-color:#81E9E2"/>
			<stop  offset="3.094059e-003" style="stop-color:#80E9E2"/>
			<stop  offset="0.2055" style="stop-color:#5BCED5"/>
			<stop  offset="0.407" style="stop-color:#3DB9CA"/>
			<stop  offset="0.6053" style="stop-color:#28AAC3"/>
			<stop  offset="0.7988" style="stop-color:#1BA1BE"/>
			<stop  offset="0.9818" style="stop-color:#179EBD"/>
		</linearGradient>
		<path class="st4" d="M228.7,217.7c0,7.3-5.6,43.6,40.2,53.3c87.6,18.6,354.1-138.5,380.7-25.6c13,55-37.9,100.3-37.9,100.3
			s7.6-49.4-82-43.8c-63.6,4.2-217.8,70.7-301.1,19.9C177.3,290.4,191.9,232.5,228.7,217.7z"/>
		<path class="st5" d="M611.7,199.7c-48.4-11.7-127.8,13.5-194.6,34c-27.9,8.6-24.6,7.3-27.4,8.9c77.1-42,119.9-97.2,172.4-97.2
			C594.6,145.3,611.7,170.5,611.7,199.7z"/>
		<linearGradient id="SVGID_3_" gradientUnits="userSpaceOnUse" x1="230.767" y1="391.7275" x2="611.6797" y2="391.7275">
			<stop  offset="0" style="stop-color:#81E9E2"/>
			<stop  offset="3.094059e-003" style="stop-color:#80E9E2"/>
			<stop  offset="0.2055" style="stop-color:#5BCED5"/>
			<stop  offset="0.407" style="stop-color:#3DB9CA"/>
			<stop  offset="0.6053" style="stop-color:#28AAC3"/>
			<stop  offset="0.7988" style="stop-color:#1BA1BE"/>
			<stop  offset="0.9818" style="stop-color:#179EBD"/>
		</linearGradient>
		<path class="st6" d="M529.7,301.9c-6.6,0.4-14.1,1.5-22.5,3.1c-23.4,6.3-51,23.1-77.3,39.7c-31,19.5-66.2,41.5-102.8,50.8
			c-41.4,10.5-79.7,2.1-96.4-35.3c4.3,16.8,15.2,31.4,30.5,40.3l126.2,72.9c9.9,5.7,21.2,8.7,32.6,8.7c11.5,0,22.8-3,32.6-8.7
			L579,400.4c20.1-11.6,32.6-33.3,32.6-56.5v-4C610.4,326.9,599.9,297.5,529.7,301.9z"/>
		<path class="st7" d="M295.9,392.1c-45.4,0-63.4-34.7-63.4-58.1v-1.7c20.9,10.7,46.2,16.1,77.4,16.1c43.7,0,91.8-10.6,133-20.6
			C402.2,352.7,346.6,392.1,295.9,392.1z"/>
		<path class="st8" d="M529.7,301.9c-72.9,4.8-141.5,91.2-226,97.5c63.3,7.6,117.4-35.4,190.7-53.7c86.9-21.6,110.4,5.1,115,15.1
			C622.5,312.6,579.7,298.8,529.7,301.9z"/>
		<path class="st8" d="M311.2,270.3c67.4-19.5,156.5-91,188.5-111c-93,42.1-107.1,60.8-197.7,75.4c-76.3,12.3-72.7-43.7-72.5-46.6
			c-1,6.7-0.8,7-0.8,41.9C231.9,269.5,271.9,276.4,311.2,270.3z"/>
	</g>
</g>
</svg>
